<svg width="12" height="14" viewBox="0 0 12 14" fill="none" xmlns="http://www.w3.org/2000/svg">
<path d="M7 3.71875V0H0.75C0.334375 0 0 0.292578 0 0.65625V13.3438C0 13.7074 0.334375 14 0.75 14H11.25C11.6656 14 12 13.7074 12 13.3438V4.375H7.75C7.3375 4.375 7 4.07969 7 3.71875ZM4 7.65625C4 7.77711 3.88812 7.875 3.75 7.875H3.5C3.22375 7.875 3 8.07078 3 8.3125V9.1875C3 9.42922 3.22375 9.625 3.5 9.625H3.75C3.88812 9.625 4 9.72289 4 9.84375V10.2812C4 10.4021 3.88812 10.5 3.75 10.5H3.5C2.67156 10.5 2 9.91238 2 9.1875V8.3125C2 7.58762 2.67156 7 3.5 7H3.75C3.88812 7 4 7.09789 4 7.21875V7.65625ZM5.38344 10.5H5C4.86187 10.5 4.75 10.4021 4.75 10.2812V9.84375C4.75 9.72289 4.86187 9.625 5 9.625H5.38344C5.56938 9.625 5.70875 9.5293 5.70875 9.44398C5.70875 9.40844 5.68531 9.37125 5.6425 9.33898L4.95844 8.82574C4.69375 8.62832 4.54187 8.34777 4.54187 8.05629C4.54187 7.47387 5.13625 7.00027 5.86719 7.00027H6.25C6.38812 7.00027 6.5 7.09816 6.5 7.21902V7.65652C6.5 7.77738 6.38812 7.87527 6.25 7.87527H5.86656C5.68062 7.87527 5.54125 7.97098 5.54125 8.05629C5.54125 8.09184 5.56469 8.12902 5.6075 8.16129L6.29156 8.67453C6.55625 8.87195 6.70813 9.1525 6.70813 9.44398C6.70844 10.0261 6.11437 10.5 5.38344 10.5ZM8 7.21875V7.7875C8 8.34176 8.17812 8.8859 8.5 9.34281C8.82187 8.88617 9 8.34176 9 7.7875V7.21875C9 7.09789 9.11187 7 9.25 7H9.75C9.88813 7 10 7.09789 10 7.21875V7.7875C10 8.75766 9.5975 9.67121 8.86625 10.3603C8.77187 10.4491 8.63906 10.5 8.5 10.5C8.36094 10.5 8.22812 10.4491 8.13375 10.3603C7.4025 9.67121 7 8.75766 7 7.7875V7.21875C7 7.09789 7.11187 7 7.25 7H7.75C7.88812 7 8 7.09789 8 7.21875ZM11.7812 2.87109L8.72188 0.191406C8.58125 0.0683594 8.39062 0 8.19063 0H8V3.5H12V3.3332C12 3.16094 11.9219 2.99414 11.7812 2.87109Z" fill="white"/>
</svg>
